<svg id="Light" xmlns="http://www.w3.org/2000/svg" viewBox="0 0 96 96"><defs><style>.cls-1,.cls-2{fill:none;stroke:#fff;stroke-miterlimit:10;stroke-width:6px;}.cls-2{stroke-linecap:round;}.cls-3{fill:#fff;}</style></defs><path class="cls-1" d="M7.58,54.13V78.58a3.8,3.8,0,0,0,3.85,3.77h30.4m0-68.67H11.43a3.81,3.81,0,0,0-3.85,3.78V41.9m80.77,0V17.46a3.81,3.81,0,0,0-3.85-3.78H54.1m0,68.64H84.5a3.81,3.81,0,0,0,3.85-3.78V54.1"/><line class="cls-2" x1="48" y1="9.61" x2="48" y2="17.76"/><line class="cls-2" x1="48" y1="78.24" x2="48" y2="86.39"/><line class="cls-2" x1="3.5" y1="48" x2="11.65" y2="48"/><line class="cls-2" x1="84.35" y1="48" x2="92.5" y2="48"/><path class="cls-3" d="M16,22.21V52.3L28.34,40a2,2,0,0,1,1.43-.62,1.88,1.88,0,0,1,1.39.62L49.52,58.67s1.12,1.12,2,1.12A16.56,16.56,0,0,0,55,58.67L67.31,51.8a5.31,5.31,0,0,1,1.85-.54,3.39,3.39,0,0,1,1.58.54L80,57.28V22.21ZM65.07,43.16a7.56,7.56,0,1,1,7.56-7.56A7.57,7.57,0,0,1,65.07,43.16Z"/></svg>