<svg id="Light" xmlns="http://www.w3.org/2000/svg" viewBox="0 0 96 96"><defs><style>.cls-1{fill:#fff;}</style></defs><circle class="cls-1" cx="48" cy="51.99" r="14.67"/><path class="cls-1" d="M87.65,28.75H69.24c-2.79-5.67-7.47-14.4-9.44-14.4H36.32c-2,0-6.69,8.77-9.52,14.4H23.3v-.4a3,3,0,0,0-2.95-3H13.59a3,3,0,0,0-2.95,3v.4H8.35A7.36,7.36,0,0,0,1,36.1V74.29a7.37,7.37,0,0,0,7.35,7.36h79.3A7.37,7.37,0,0,0,95,74.29V36.1A7.36,7.36,0,0,0,87.65,28.75ZM48,74.76A22.77,22.77,0,1,1,70.77,52,22.75,22.75,0,0,1,48,74.76ZM84.5,43.93a5.16,5.16,0,1,1,5.15-5.15A5.17,5.17,0,0,1,84.5,43.93Z"/></svg>