<svg id="Light" xmlns="http://www.w3.org/2000/svg" viewBox="0 0 96 96"><defs><style>.cls-1{fill:#fff;}</style></defs><path class="cls-1" d="M57.26,74.48C45.8,73,39.48,78.9,33.65,83.61,23.25,92,15.33,95.22,7.1,91.73c-7.92-3.36-6-10.6-5-13.12,2.5-6.25,8.35-8.41,10-9.09,2.56-1,14.93-1.9,7.28,1.67C10.7,75.26,6.24,82.58,7.65,85s9,2.87,17.39-4.61c7.51-6.73,16.41-13.61,28.7-13.22,23.51.74,34.75,23.36,21.72,27.2S68.72,75.94,57.26,74.48Z"/><path class="cls-1" d="M88.58,18,74,3.42a5,5,0,0,0-7.07,0L36.79,33.58,29.35,41a5,5,0,0,0-1.27,2.16L22.16,63.65A5,5,0,0,0,27,70a4.77,4.77,0,0,0,1.39-.2l20.48-5.92A5,5,0,0,0,51,62.65l7.42-7.47L88.57,25.06a5,5,0,0,0,0-7.08ZM33,64.73,27.29,59l4-13.18,15,15ZM84.88,23.87l-8.41,8.41L59.72,15.53l8.41-8.41a3,3,0,0,1,4.24,0L84.88,19.63A3,3,0,0,1,84.88,23.87Z"/></svg>