<svg id="Dark" xmlns="http://www.w3.org/2000/svg" viewBox="0 0 96 96"><defs><style>.cls-1{fill:#1f1f1e;}.cls-2{fill:#fff;}</style></defs><path class="cls-1" d="M27,70a5,5,0,0,1-4.8-6.39l5.92-20.52A5,5,0,0,1,29.35,41l7.44-7.39L67,3.42a5,5,0,0,1,7.07,0L88.58,18a5,5,0,0,1,0,7.08L58.41,55.18,51,62.65a5,5,0,0,1-2.16,1.27L28.35,69.84A4.77,4.77,0,0,1,27,70ZM47.44,59.12h0Z"/><path class="cls-1" d="M57.26,74.48C45.8,73,39.48,78.9,33.65,83.61,23.25,92,15.33,95.22,7.1,91.73c-7.92-3.36-6-10.6-5-13.12,2.5-6.25,8.35-8.41,10-9.09,2.56-1,14.93-1.9,7.28,1.67C10.7,75.26,6.24,82.58,7.65,85s9,2.87,17.39-4.61c7.51-6.73,16.41-13.61,28.7-13.22,23.51.74,34.75,23.36,21.72,27.2S68.72,75.94,57.26,74.48Z"/><polygon class="cls-2" points="31.32 45.82 27.29 59 33.02 64.73 46.29 60.79 31.32 45.82"/><path class="cls-2" d="M64.77,10.93h17.7a3,3,0,0,1,3,3v11.9a0,0,0,0,1,0,0H61.77a0,0,0,0,1,0,0V13.93A3,3,0,0,1,64.77,10.93Z" transform="translate(34.56 -46.68) rotate(45)"/></svg>