<svg id="Dark" xmlns="http://www.w3.org/2000/svg" viewBox="0 0 96 96"><defs><style>.cls-1{fill:#1f1f1e;}</style></defs><path class="cls-1" d="M80.76,11.58H65.64V9.4A8.42,8.42,0,0,0,57.24,1H38.76a8.42,8.42,0,0,0-8.4,8.4v2.18H15.24A6.74,6.74,0,0,0,8.52,18.3v5.88h79V18.3A6.74,6.74,0,0,0,80.76,11.58ZM36.24,9.9a2.48,2.48,0,0,1,2.52-2.52H57.24A2.48,2.48,0,0,1,59.76,9.9v1.68H36.24Z"/><path class="cls-1" d="M11.88,27.8l9.24,65.52A1.68,1.68,0,0,0,22.8,95H73.2a1.68,1.68,0,0,0,1.68-1.68L84.12,27.8Zm21.76,57a3.39,3.39,0,0,1-3.7-3l-4.2-40.07A3.38,3.38,0,1,1,32.46,41l4.2,40.07A3.39,3.39,0,0,1,33.64,84.75Zm17.72-3.19a3.36,3.36,0,0,1-6.72,0V41.24a3.36,3.36,0,0,1,6.72,0Zm18.9-39.9-4.2,40.07a3.38,3.38,0,0,1-6.72-.67L63.54,41a3.39,3.39,0,0,1,3.7-3A3.49,3.49,0,0,1,70.26,41.66Z"/></svg>